<svg width="800" height="355" xmlns="http://www.w3.org/2000/svg">

 <g>
  <title>Layer 1</title>
  <g transform="rotate(49.5997 368.5 178.288)" stroke="null">
   <g stroke="null">
    <path stroke="null" fill="#2F7889" d="m663.60149,-99.82002c-2.12207,-15.25851 -13.62073,-22.83365 -13.62073,-22.83365c-16.87786,2.32665 -114.29568,48.64325 -114.29568,48.64325l-3.20778,30.03004l-210.33169,225.90163c-2.07272,2.27254 -1.77662,6.11422 0.64156,8.6032l33.26221,36.46891c2.56622,2.38076 6.16881,2.38076 8.04413,-0.05411c0,0 18.01292,-6.87174 39.33232,-33.1142c14.21293,-17.47694 10.21555,-27.64928 17.66747,-36.79356c55.81538,-68.50095 133.44366,-163.73134 139.51377,-171.19827l25.71159,0.81162c4.54024,0.16232 8.78438,-2.48898 11.00515,-6.81763c6.56361,-12.87775 20.8259,-39.98594 30.54794,-51.45688c8.43893,-9.9559 11.74541,-8.65731 22.94797,-12.22845c10.9558,-3.57114 14.41034,-4.43687 12.78177,-15.96191z"/>
    <path stroke="null" fill="#FFFDE7" d="m332.85466,170.01745c0,0 -17.86487,-22.29257 -36.07519,-13.31061c-24.32978,12.01202 -7.69867,41.93384 -40.22063,54.32461c-35.53234,13.47294 -60.70107,39.17432 -48.56086,70.34063c13.02852,33.43885 65.04391,35.33264 67.51144,121.0941c1.18441,41.06811 27.93236,40.04005 39.77648,26.56711c20.77655,-23.75349 18.70383,-97.23239 40.17128,-123.42075c21.46745,-26.18836 74.66726,-19.47894 93.96329,-68.28452c0,0 -33.06481,36.4148 -75.06206,0.48697c-19.88824,-17.04408 -19.64149,-45.45087 -19.64149,-45.45087l-21.86226,-22.34668l0,0z"/>
    <path stroke="null" fill="#C62828" d="m384.47525,127.81308c0,0 2.17142,2.43487 -4.14544,-3.51703c-13.52203,-12.71542 -22.75057,32.24847 -43.67516,9.46893c-27.68561,-25.64728 -19.44408,-48.3186 2.02337,-73.64123c10.51165,-12.39077 15.05189,-18.12624 12.97917,-32.57312c-1.72727,-12.28256 -12.18957,-20.07413 -26.2051,-20.07413c-13.67008,0.86573 -37.99986,20.88576 -61.39198,58.97791c-35.58169,57.89575 -18.70383,88.62919 -55.76603,119.57907c-37.01285,30.89577 -118.78657,41.82562 -124.41253,120.17426c-3.20778,44.96389 15.8415,70.61117 40.22063,103.45483c16.87786,22.77954 57.44394,62.11619 87.64643,78.67329s67.65949,25.70138 98.55288,3.13827c68.39975,-49.94185 58.1842,-100.69532 69.73221,-133.53898c13.27528,-37.65929 46.19204,-25.05209 79.94776,-60.38472c25.07004,-24.56511 30.64664,-49.34666 29.11678,-65.95787c-1.62857,-17.04408 -15.348,-34.84567 -28.22847,-32.57312c-4.93505,-2.54308 0.4935,13.36472 -3.70128,22.67133c-10.61035,23.64527 -27.63626,37.44286 -50.18942,17.96391c-18.21032,-15.74548 3.15843,-56.11018 3.15843,-56.11018l-14.11423,-18.505l-11.54801,-37.22643z"/>
    <path stroke="null" fill="#F44336" d="m373.91425,116.23393c0,0 2.17142,2.43487 -4.14544,-3.51703c-13.52203,-12.71542 -41.30634,28.08214 -62.18159,5.3026c-19.39473,-21.1563 8.63633,-53.94585 29.31418,-76.02199c17.76617,-15.42083 0.83896,-35.27853 -11.35061,-34.52102c-13.67008,0.86573 -48.56086,9.30661 -71.95298,47.39876c-35.58169,57.89575 -18.70383,88.62919 -55.76603,119.57907c-29.80768,24.83565 -77.33218,34.4128 -107.28791,78.18631c-7.50127,10.98396 -13.42333,16.12424 -17.17396,41.98794c-3.20778,44.96389 15.8415,70.61117 40.22063,103.45483c16.87786,22.77954 57.44394,62.11619 87.64643,78.67329s63.6621,25.70138 94.60484,3.13827c68.39975,-49.94185 56.16083,-106.75543 67.70884,-139.6532c13.27528,-37.65929 55.07512,-25.53906 88.83084,-60.81759c22.30641,-23.32062 27.78431,-42.79957 26.25445,-59.41078c-1.08571,-11.9038 -8.73503,-17.26051 -14.45969,-20.18235c-4.93505,-2.54308 -13.27528,0.97395 -17.47007,10.33466c-10.61035,23.64527 -27.63626,37.44286 -50.18942,17.96391c-18.21032,-15.74548 0.54286,-60.70937 0.54286,-60.70937l-23.14537,-51.18633z"/>
    <path stroke="null" fill="#FFFDE7" d="m322.78716,161.6848c-3.70128,-3.08417 -23.54017,-16.88175 -40.76349,0.48697c-18.55578,18.72143 -3.45453,44.3146 -32.81806,49.23844c-37.1609,6.27655 -59.22056,33.43885 -47.08035,64.60516c13.02852,33.43885 70.96597,40.52702 73.43349,126.34259c1.18441,41.06811 27.38951,39.39075 39.77648,26.56711c28.67262,-29.7595 12.09086,-95.50093 40.17128,-123.42075c24.23108,-24.07814 60.94783,-10.92985 78.51659,-44.63925c3.10908,-5.9519 3.30648,-11.20039 -4.14544,-7.79158c-13.71943,6.27655 -30.84404,9.46893 -49.54787,-10.6052c-15.24929,-16.44889 -12.53502,-39.22843 -12.53502,-39.22843s-41.50374,-38.63324 -45.00763,-41.55508z"/>
    <g stroke="null">
     <ellipse stroke="null" fill="#82AEC0" ry="3.11" rx="3.14" cy="456.64936" cx="17.22381" transform="matrix(3.37804 -3.94449 3.59765 3.7037 -1396.14 -1272.57)"/>
     <path stroke="null" fill="#2F7889" d="m293.71974,339.32194c5.3792,-6.54709 15.69345,-8.17033 22.65186,-1.89379c3.40518,3.03006 5.72465,7.68336 6.07011,12.76953c0.34545,5.03206 -1.38181,10.22645 -4.54024,14.01402c-3.20778,3.73346 -7.84672,5.9519 -12.43632,5.89779c-4.63894,-0.05411 -9.03114,-2.32665 -11.99216,-5.84368c-6.21816,-7.2505 -5.3792,-18.66732 0.24675,-24.94387zm0,0c-2.76363,3.24649 -4.24414,7.73747 -3.89869,12.06612c0.34545,4.32865 2.36882,8.33266 5.2805,10.82164c5.97141,5.24849 14.60774,3.73346 19.14798,-1.73146c4.73764,-5.3026 5.5766,-14.87975 0.3948,-21.10219c-2.46752,-3.03006 -6.21816,-5.03206 -10.21555,-5.08617c-3.89869,-0.10822 -7.89607,1.78557 -10.70905,5.03206z"/>
    </g>
    <g stroke="null">
     <ellipse stroke="null" fill="#82AEC0" ry="2.62" rx="2.65" cy="465.40936" cx="16.65381" transform="matrix(3.37804 -3.94449 3.59765 3.7037 -1428.52 -1259.84)"/>
     <path stroke="null" fill="#2F7889" d="m292.68338,388.45216c4.54024,-5.51903 13.22593,-7.03406 19.24668,-1.73146c2.91168,2.54308 4.9844,6.54709 5.32985,10.92985c0.34545,4.32865 -1.13506,8.87374 -3.89869,12.12023c-2.76363,3.19238 -6.81036,5.14028 -10.7584,5.03206c-3.99739,-0.05411 -7.74802,-2.11022 -10.2649,-5.14028c-5.23115,-6.27655 -4.39219,-15.9078 0.34545,-21.2104zm0,0c-2.31947,2.75952 -3.55323,6.54709 -3.20778,10.17234c0.2961,3.67936 2.07272,6.92585 4.54024,8.98196c5.03375,4.27455 12.09086,2.86773 15.7428,-1.62325c3.84934,-4.32865 4.68829,-12.12023 0.4935,-17.36872c-2.02337,-2.54308 -5.13245,-4.32865 -8.48828,-4.38276c-3.35583,-0.05411 -6.71166,1.51503 -9.08049,4.22044z"/>
    </g>
    <path stroke="null" fill="#F7CF92" d="m559.96551,-27.74793l-31.5843,-37.0641l-211.66415,236.50684c-2.07272,2.27254 -1.77662,6.11422 0.64156,8.6032l33.41027,35.17031c2.56622,2.38076 6.16881,2.38076 8.04413,-0.05411l201.1525,-243.16214z"/>
    <path stroke="null" fill="#F7CF92" d="m521.37344,-58.58959l-1.43116,-6.22244c-3.89869,-13.52704 3.30648,-16.82764 6.41556,-18.07213c19.93759,-7.89979 85.96851,-37.00999 100.28015,-41.014c12.28827,-3.40882 30.79469,-2.38076 32.22585,17.69337c0.44415,6.49298 -3.89869,9.2525 -9.62334,10.82164c-9.47529,2.54308 -15.59475,2.32665 -26.64925,16.39478c-9.42594,11.95791 -23.58952,37.49697 -29.85703,49.6172c-2.07272,4.05811 -5.97141,6.54709 -10.31425,6.6012l-24.47783,-2.54308l-36.5687,-33.27653z"/>
    <g stroke="null">
     <path stroke="null" fill="#82AEC0" d="m291.35092,183.43628c3.50388,0.6493 6.56361,1.78557 9.67269,2.86773c1.97402,2.32665 4.09609,4.49098 6.11946,6.76352l12.28827,13.47294l12.28827,13.47294l6.16881,6.76352c0.98701,3.40882 2.02337,6.76352 2.66493,10.55109c-3.45453,-0.70341 -6.51426,-1.83968 -9.62334,-2.92184l-6.16881,-6.76352l-12.28827,-13.47294l-12.28827,-13.47294c-2.07272,-2.21844 -4.04674,-4.54509 -6.16881,-6.70941c-1.03636,-3.3006 -2.07272,-6.70941 -2.66493,-10.55109z"/>
    </g>
    <g stroke="null">
     <path stroke="null" fill="#82AEC0" d="m253.35106,225.15369c3.50388,0.6493 6.56361,1.78557 9.67269,2.86773c1.97402,2.32665 4.09609,4.49098 6.11946,6.76352l12.28827,13.47294l12.28827,13.47294l6.16881,6.76352c0.98701,3.40882 2.02337,6.76352 2.66493,10.55109c-3.45453,-0.70341 -6.51426,-1.83968 -9.62334,-2.92184l-6.16881,-6.76352l-12.28827,-13.47294l-12.28827,-13.47294c-2.07272,-2.21844 -4.04674,-4.54509 -6.16881,-6.70941c-1.08571,-3.35471 -2.07272,-6.70941 -2.66493,-10.55109z"/>
    </g>
    <g stroke="null">
     <path stroke="null" fill="#82AEC0" d="m233.46282,256.21178c3.15843,1.78557 5.774,3.84168 8.43893,5.9519c1.23376,2.86773 2.66493,5.68136 3.94804,8.49498l7.99478,16.93586l7.99478,16.93586l3.99739,8.44088c0,3.57114 0.04935,7.14228 -0.3948,10.92985c-3.10908,-1.83968 -5.72465,-3.89579 -8.38958,-5.9519l-3.99739,-8.44088l-7.94543,-16.93586l-7.99478,-16.93586c-1.33246,-2.81363 -2.61557,-5.68136 -4.04674,-8.44088c-0.04935,-3.57114 -0.0987,-7.14228 0.3948,-10.98396z"/>
    </g>
    <g stroke="null">
     <line stroke="#82AEC0" stroke-miterlimit="10" stroke-linecap="round" stroke-width="0.5" fill="none" y2="-53.93629" x2="526.85134" y1="329.74479" x1="188.80065"/>
     <line stroke="#82AEC0" stroke-miterlimit="10" stroke-linecap="round" stroke-width="0.5" fill="none" y2="-49.17477" x2="532.42795" y1="335.96723" x1="195.06816"/>
     <line stroke="#82AEC0" stroke-miterlimit="10" stroke-linecap="round" stroke-width="0.5" fill="none" y2="-43.87216" x2="537.5604" y1="342.24378" x1="201.33567"/>
     <line stroke="#82AEC0" stroke-miterlimit="10" stroke-linecap="round" stroke-width="0.5" fill="none" y2="-38.35313" x2="542.49544" y1="348.46622" x1="207.65253"/>
     <line stroke="#82AEC0" stroke-miterlimit="10" stroke-linecap="round" stroke-width="0.5" fill="none" y2="-33.97037" x2="548.4175" y1="354.74277" x1="213.92004"/>
     <line stroke="#82AEC0" stroke-miterlimit="10" stroke-linecap="round" stroke-width="0.5" fill="none" y2="-28.50544" x2="554.43825" y1="361.01932" x1="220.18754"/>
    </g>
    <path stroke="null" fill="#2F7889" d="m159.33842,322.38608c-1.33246,1.56914 -1.67792,3.62525 -0.74026,4.59919l65.53742,66.12019c0.93766,0.97395 2.81298,0.43287 4.14544,-1.13627l22.20771,-25.43084c1.33246,-1.56914 1.67792,-3.62525 0.74026,-4.59919l-65.53742,-66.12019c-0.93766,-0.97395 -2.81298,-0.43287 -4.14544,1.13627l-22.20771,25.43084z"/>
    <g stroke="null">
     <path stroke="null" fill="#FF7043" d="m252.5121,111.31008c-3.99739,-0.81162 -6.16881,-4.92384 -4.58959,-15.09618c4.39219,-28.67733 21.66485,-55.02801 45.74788,-67.31057c8.43893,-4.32865 16.28565,-3.57114 17.91422,7.57514c0.83896,5.89779 -2.07272,11.63326 -9.91944,16.61121c-17.56877,11.2545 -34.29857,27.70339 -39.38167,49.29255c-1.87532,7.79158 -5.32985,9.79358 -9.77139,8.92785z"/>
    </g>
    <g stroke="null">
     <ellipse stroke="null" fill="#82AEC0" ry="2.21" rx="1.57" cy="366.66263" cx="14.47475" transform="matrix(2.87516 -4.39737 4.01071 3.15234 -987.76 -1187.23)"/>
     <ellipse stroke="null" fill="#82AEC0" ry="2.21" rx="1.57" cy="365.20263" cx="18.48475" transform="matrix(2.87516 -4.39737 4.01071 3.15234 -973.659 -1172.91)"/>
     <ellipse stroke="null" fill="#82AEC0" ry="2.21" rx="1.57" cy="363.74263" cx="22.48475" transform="matrix(2.87516 -4.39737 4.01071 3.15234 -959.558 -1158.58)"/>
     <ellipse stroke="null" fill="#82AEC0" ry="2.21" rx="1.57" cy="362.28263" cx="26.49475" transform="matrix(2.87516 -4.39737 4.01071 3.15234 -945.457 -1144.26)"/>
     <ellipse stroke="null" fill="#82AEC0" ry="2.21" rx="1.57" cy="360.82263" cx="30.49475" transform="matrix(2.87516 -4.39737 4.01071 3.15234 -931.357 -1129.94)"/>
     <ellipse stroke="null" fill="#82AEC0" ry="2.21" rx="1.57" cy="359.37263" cx="34.50475" transform="matrix(2.87516 -4.39737 4.01071 3.15234 -917.256 -1115.62)"/>
    </g>
   </g>
  </g>
 </g>
</svg>